HIERARCHY
ROOT Hips
{
    OFFSET   0.000000   0.000000   0.000000
    CHANNELS 6 Xposition Yposition Zposition Zrotation Xrotation Yrotation
    JOINT Chest
    {
        OFFSET   0.000000   8.007230   0.000000
        CHANNELS 3 Zrotation Xrotation Yrotation
        JOINT Chest2
        {
            OFFSET   0.000000  22.077100   0.000000
            CHANNELS 3 Zrotation Xrotation Yrotation
            JOINT Neck
            {
                OFFSET   0.000000  23.254700   0.000000
                CHANNELS 3 Zrotation Xrotation Yrotation
                JOINT Head
                {
                    OFFSET   0.000010  14.370000   1.956610
                    CHANNELS 3 Zrotation Xrotation Yrotation
                    End Site
                    {
                        OFFSET   0.000000  19.566000   0.000000
                    }
                }
            }
            JOINT LeftCollar
            {
                OFFSET   3.911900  19.017000  -0.467063
                CHANNELS 3 Zrotation Xrotation Yrotation
                JOINT LeftShoulder
                {
                    OFFSET  10.383700   0.000000   0.000000
                    CHANNELS 3 Zrotation Xrotation Yrotation
                    JOINT LeftElbow
                    {
                        OFFSET  26.662100   0.001671   0.000522
                        CHANNELS 3 Zrotation Xrotation Yrotation
                        JOINT LeftWrist
                        {
                            OFFSET  28.869000   0.000037  -0.000114
                            CHANNELS 3 Zrotation Xrotation Yrotation
                            JOINT LeftFinger0
                            {
                                OFFSET   2.044650  -2.323450   3.252850
                                CHANNELS 3 Zrotation Xrotation Yrotation
                                JOINT LeftFinger01
                                {
                                    OFFSET   3.088140   0.000000   0.000000
                                    CHANNELS 3 Zrotation Xrotation Yrotation
                                    JOINT LeftFinger02
                                    {
                                        OFFSET   2.639460   0.000000   0.000000
                                        CHANNELS 3 Zrotation Xrotation Yrotation
                                        End Site
                                        {
                                            OFFSET   2.582190   0.000000   0.000000
                                        }
                                    }
                                }
                            }
                            JOINT LeftFinger1
                            {
                                OFFSET   8.364480   0.000000   3.252850
                                CHANNELS 3 Zrotation Xrotation Yrotation
                                JOINT LeftFinger11
                                {
                                    OFFSET   4.646930   0.000000   0.000000
                                    CHANNELS 3 Zrotation Xrotation Yrotation
                                    JOINT LeftFinger12
                                    {
                                        OFFSET   2.323470   0.000000   0.000000
                                        CHANNELS 3 Zrotation Xrotation Yrotation
                                        End Site
                                        {
                                            OFFSET   2.273050   0.000000   0.000000
                                        }
                                    }
                                }
                            }
                            JOINT LeftFinger2
                            {
                                OFFSET   8.364490   0.000016   1.078090
                                CHANNELS 3 Zrotation Xrotation Yrotation
                                JOINT LeftFinger21
                                {
                                    OFFSET   5.111620   0.000000   0.000000
                                    CHANNELS 3 Zrotation Xrotation Yrotation
                                    JOINT LeftFinger22
                                    {
                                        OFFSET   2.788150   0.000013   0.000000
                                        CHANNELS 3 Zrotation Xrotation Yrotation
                                        End Site
                                        {
                                            OFFSET   2.727660   0.000000   0.000000
                                        }
                                    }
                                }
                            }
                            JOINT LeftFinger3
                            {
                                OFFSET   7.899780   0.000016  -1.078090
                                CHANNELS 3 Zrotation Xrotation Yrotation
                                JOINT LeftFinger31
                                {
                                    OFFSET   4.646930   0.000000   0.000000
                                    CHANNELS 3 Zrotation Xrotation Yrotation
                                    JOINT LeftFinger32
                                    {
                                        OFFSET   2.323470   0.000000   0.000000
                                        CHANNELS 3 Zrotation Xrotation Yrotation
                                        End Site
                                        {
                                            OFFSET   2.273050   0.000000   0.000000
                                        }
                                    }
                                }
                            }
                            JOINT LeftFinger4
                            {
                                OFFSET   7.435080   0.000000  -3.252850
                                CHANNELS 3 Zrotation Xrotation Yrotation
                                JOINT LeftFinger41
                                {
                                    OFFSET   3.717550   0.000000   0.000000
                                    CHANNELS 3 Zrotation Xrotation Yrotation
                                    JOINT LeftFinger42
                                    {
                                        OFFSET   1.858760   0.000000   0.000000
                                        CHANNELS 3 Zrotation Xrotation Yrotation
                                        End Site
                                        {
                                            OFFSET   1.818440   0.000000   0.000000
                                        }
                                    }
                                }
                            }
                        }
                    }
                }
            }
            JOINT RightCollar
            {
                OFFSET  -3.911900  19.017000  -0.467064
                CHANNELS 3 Zrotation Xrotation Yrotation
                JOINT RightShoulder
                {
                    OFFSET -10.383700   0.000000   0.000000
                    CHANNELS 3 Zrotation Xrotation Yrotation
                    JOINT RightElbow
                    {
                        OFFSET -26.662100   0.001633   0.000260
                        CHANNELS 3 Zrotation Xrotation Yrotation
                        JOINT RightWrist
                        {
                            OFFSET -28.869000  -0.000045  -0.000080
                            CHANNELS 3 Zrotation Xrotation Yrotation
                            JOINT RightFinger0
                            {
                                OFFSET  -2.044660  -2.323490   3.252850
                                CHANNELS 3 Zrotation Xrotation Yrotation
                                JOINT RightFinger01
                                {
                                    OFFSET  -3.088140   0.000000   0.000000
                                    CHANNELS 3 Zrotation Xrotation Yrotation
                                    JOINT RightFinger02
                                    {
                                        OFFSET  -2.639450   0.000000   0.000000
                                        CHANNELS 3 Zrotation Xrotation Yrotation
                                        End Site
                                        {
                                            OFFSET  -2.582190   0.000000   0.000000
                                        }
                                    }
                                }
                            }
                            JOINT RightFinger1
                            {
                                OFFSET  -8.364480   0.000000   3.252850
                                CHANNELS 3 Zrotation Xrotation Yrotation
                                JOINT RightFinger11
                                {
                                    OFFSET  -4.646920   0.000000   0.000000
                                    CHANNELS 3 Zrotation Xrotation Yrotation
                                    JOINT RightFinger12
                                    {
                                        OFFSET  -2.323470   0.000000   0.000000
                                        CHANNELS 3 Zrotation Xrotation Yrotation
                                        End Site
                                        {
                                            OFFSET  -2.273050   0.000000   0.000000
                                        }
                                    }
                                }
                            }
                            JOINT RightFinger2
                            {
                                OFFSET  -8.364480   0.000000   1.078090
                                CHANNELS 3 Zrotation Xrotation Yrotation
                                JOINT RightFinger21
                                {
                                    OFFSET  -5.111610   0.000000   0.000000
                                    CHANNELS 3 Zrotation Xrotation Yrotation
                                    JOINT RightFinger22
                                    {
                                        OFFSET  -2.788160   0.000000   0.000000
                                        CHANNELS 3 Zrotation Xrotation Yrotation
                                        End Site
                                        {
                                            OFFSET  -2.727660   0.000000   0.000000
                                        }
                                    }
                                }
                            }
                            JOINT RightFinger3
                            {
                                OFFSET  -7.899780   0.000000  -1.078090
                                CHANNELS 3 Zrotation Xrotation Yrotation
                                JOINT RightFinger31
                                {
                                    OFFSET  -4.646930   0.000000   0.000000
                                    CHANNELS 3 Zrotation Xrotation Yrotation
                                    JOINT RightFinger32
                                    {
                                        OFFSET  -2.323470   0.000000   0.000000
                                        CHANNELS 3 Zrotation Xrotation Yrotation
                                        End Site
                                        {
                                            OFFSET  -2.273050   0.000000   0.000000
                                        }
                                    }
                                }
                            }
                            JOINT RightFinger4
                            {
                                OFFSET  -7.435090   0.000000  -3.252850
                                CHANNELS 3 Zrotation Xrotation Yrotation
                                JOINT RightFinger41
                                {
                                    OFFSET  -3.717550   0.000000   0.000000
                                    CHANNELS 3 Zrotation Xrotation Yrotation
                                    JOINT RightFinger42
                                    {
                                        OFFSET  -1.858760   0.000000   0.000000
                                        CHANNELS 3 Zrotation Xrotation Yrotation
                                        End Site
                                        {
                                            OFFSET  -1.818440   0.000000   0.000000
                                        }
                                    }
                                }
                            }
                        }
                    }
                }
            }
        }
    }
    JOINT LeftHip
    {
        OFFSET   9.782990   0.000000   0.000000
        CHANNELS 3 Zrotation Xrotation Yrotation
        JOINT LeftKnee
        {
            OFFSET  -0.000063 -41.789100   0.001657
            CHANNELS 3 Zrotation Xrotation Yrotation
            JOINT LeftAnkle
            {
                OFFSET   0.000078 -41.133200  -0.000113
                CHANNELS 3 Zrotation Xrotation Yrotation
                JOINT LeftToe
                {
                    OFFSET   0.000000  -6.358970  14.674500
                    CHANNELS 3 Zrotation Xrotation Yrotation
                    End Site
                    {
                        OFFSET   0.000000   0.000000   3.913200
                    }
                }
            }
        }
    }
    JOINT RightHip
    {
        OFFSET  -9.782990   0.000000   0.000000
        CHANNELS 3 Zrotation Xrotation Yrotation
        JOINT RightKnee
        {
            OFFSET   0.000053 -41.789200   0.000277
            CHANNELS 3 Zrotation Xrotation Yrotation
            JOINT RightAnkle
            {
                OFFSET   0.000030 -41.133200  -0.000150
                CHANNELS 3 Zrotation Xrotation Yrotation
                JOINT RightToe
                {
                    OFFSET   0.000000  -6.358960  14.674500
                    CHANNELS 3 Zrotation Xrotation Yrotation
                    End Site
                    {
                        OFFSET   0.000000   0.000000   3.913200
                    }
                }
            }
        }
    }
}
MOTION
Frames: 4
Frame Time:   0.016667
  1.083880  89.495500   1.204280  -6.294470 -22.741200  -5.227320  -0.121372  12.093600   0.871679  -0.451642  24.183800   1.833890  -9.827970  -2.622950  -0.454254 -16.231300  -4.852230   4.453270  -1.643230  -2.623360   1.342230 -45.808900   9.572850 -73.954800  18.729300 -31.818800 -102.936000   6.056890 -32.267200  -6.447840  51.127700  36.309800 -72.666200  -8.772440   0.013699   0.002406   0.613776   0.002568  -0.009302 -16.974600   2.711770  -8.770800 -14.058100  -0.005302  -0.001541  -9.840700   0.001754  -0.000398 -28.191200   2.809930  -5.206320 -33.651400   0.022111   0.020416 -22.411800   0.008398   0.017658 -20.174100  -2.980780   8.018270 -20.374100   0.000985  -0.001719 -13.569100   0.000899   0.004223 -35.259900  -5.379630   7.520520 -53.414700   0.001565   0.001787 -35.574300   0.000312  -0.000675   5.039590  -1.229930   8.067560  68.838000  32.761000   8.781630  -2.493840  -4.526850  16.435000 -13.301800  -8.296410   0.086710 -37.410000  29.947100  62.595800  31.341100   0.005011  -0.002955  10.670500   0.002499  -0.003818  29.895800   7.410340  12.644900  25.132900  -0.002663   0.002742  17.593100  -0.001854   0.002048  28.480900   4.348500   7.957160  41.339200  -0.002855   0.010134  27.532000  -0.001877   0.007020  28.215800   3.657880   6.781650  35.426900  -0.002278   0.000121  23.594400  -0.001509  -0.000155  38.575400  -0.681696  -0.849381  57.871000  -0.003237   0.003026  38.542000  -0.002139   0.002241   2.560420  26.147200   5.313370   0.718160   0.055049   7.401180   0.233979  -3.890060   1.777910  -0.000000   0.000000   0.000000   6.401980  24.499200  -0.323693  -1.203080   4.065760 -10.767500  -0.883014  -5.947650   0.474303  -0.000000   0.000000   0.000000
  1.096450  89.496100   1.151850  -6.287880 -22.733400  -5.211610  -0.137075  12.109400   0.882766  -0.487058  24.215200   1.860700  -9.819860  -2.713580  -0.469475 -16.222000  -5.020680   3.826890  -1.639350  -2.624230   1.393380 -46.026800   9.676210 -73.806500  18.687300 -31.693300 -103.265000   7.358080 -31.859700  -5.569700  51.419200  36.483300 -72.706900 -10.159800   0.016441   0.003124  -0.079899   0.002679  -0.009790 -17.692100   2.726870  -8.469950 -14.640200  -0.005438  -0.001401 -10.248200   0.001760  -0.000292 -28.426500   1.998260  -3.652060 -35.131800   0.028455   0.031797 -23.397800   0.009145   0.027382 -20.473900  -3.021400   8.021990 -20.686900   0.001015  -0.001662 -13.777500   0.000917   0.004344 -35.575600  -5.429030   7.526960 -53.900700   0.000824   0.001803 -35.897900  -0.000463  -0.000754   5.046200  -1.244380   8.058810  68.784100  32.813200   8.827280  -2.485780  -4.576800  16.390800 -13.310000  -8.318960   0.067179 -37.385600  29.916900  62.562200  31.348000   0.005067  -0.003033  10.674000   0.002489  -0.003867  29.893800   7.409910  12.644200  25.131100  -0.002783   0.002721  17.591800  -0.001937   0.002032  28.479300   4.354950   7.969050  41.339100  -0.002993   0.010129  27.531900  -0.001968   0.007005  28.214400   3.663570   6.791870  35.424200  -0.002288   0.000140  23.592600  -0.001518  -0.000122  38.570600  -0.681908  -0.850690  57.863700  -0.003247   0.002953  38.537200  -0.002148   0.002174   2.562080  26.074000   5.306060   0.722175   0.109734   7.392810   0.233873  -3.887980   1.777980   0.000000   0.000000  -0.000000   6.392440  24.451000  -0.325839  -1.196610   4.072140 -10.771600  -0.887166  -5.916410   0.474197  -0.000000   0.000000  -0.000000
  1.106540  89.496100   1.100330  -6.285070 -22.728400  -5.204560  -0.154783  12.128800   0.895109  -0.527012  24.253600   1.890640  -9.822730  -2.810060  -0.486305 -16.231800  -5.198840   3.202470  -1.633640  -2.641360   1.443340 -46.179600   9.777230 -73.670400  18.535500 -31.604900 -103.608000   8.819320 -31.362800  -4.633170  51.908800  36.560000 -73.023500 -11.416700   0.015730   0.003085  -0.708341   0.002766  -0.010246 -18.657200   2.815790  -8.288670 -15.431100  -0.005569  -0.001248 -10.801800   0.001757  -0.000152 -28.516500   1.247380  -2.212380 -37.380200   0.028009   0.037451 -24.894200   0.006989   0.030397 -21.051400  -3.030670   7.840990 -21.481500   0.001031  -0.001626 -14.306700   0.000922   0.004459 -36.092900  -5.287150   7.227300 -54.645100  -0.000263   0.001808 -36.393700  -0.001329  -0.000839   5.060170  -1.269200   8.063350  68.753500  32.827400   8.844420  -2.474790  -4.617090  16.360600 -13.315200  -8.356520   0.058587 -37.346600  29.883200  62.565100  31.365600   0.005115  -0.003052  10.682800   0.002470  -0.003904  29.914300   7.414350  12.642200  25.148200  -0.002908   0.002701  17.603800  -0.002027   0.002017  28.478300   4.359180   7.976710  41.371500  -0.003134   0.010120  27.553500  -0.002056   0.006988  28.213300   3.667510   6.799180  35.446800  -0.002301   0.000158  23.607600  -0.001523  -0.000105  38.581400  -0.682127  -0.852223  57.879800  -0.003257   0.002879  38.548000  -0.002157   0.002116   2.564800  26.031500   5.300750   0.721773   0.109205   7.386510   0.234329  -3.864460   1.780160  -0.000000   0.000000  -0.000000   6.386650  24.404600  -0.336503  -1.194060   4.079630 -10.765000  -0.889116  -5.884980   0.477853  -0.000000   0.000000  -0.000000
  1.115840  89.496000   1.049730  -6.283120 -22.724700  -5.199460  -0.172781  12.150500   0.905372  -0.567163  24.296600   1.916390  -9.828330  -2.915750  -0.504982 -16.250500  -5.393580   2.578920  -1.628470  -2.672080   1.492980 -46.302100   9.882480 -73.544300  18.349100 -31.572100 -103.953000  10.366800 -30.902600  -3.676160  52.481200  36.671300 -73.432900 -12.802300   0.012714   0.002817  -1.401150   0.002806  -0.010685 -19.812500   2.970460  -8.162680 -16.383300  -0.005698  -0.001074 -11.468300   0.001747   0.000000 -28.567600   0.521935  -0.852763 -40.005000   0.024889   0.039419 -26.643300   0.002308   0.030827 -21.723300  -3.035090   7.559400 -22.054700   0.001036  -0.001503 -14.688400   0.000922   0.004566 -36.759800  -5.072520   6.750270 -55.589400  -0.001567   0.001809 -37.022500  -0.002183  -0.000929   5.078700  -1.298690   8.075730  68.729100  32.832500   8.847180  -2.459030  -4.653410  16.347300 -13.317500  -8.381250   0.056668 -37.309600  29.847300  62.594700  31.386400   0.005163  -0.003061  10.693200   0.002452  -0.003942  29.944400   7.421090  12.640300  25.173500  -0.003030   0.002681  17.621500  -0.002116   0.002002  28.477500   4.362510   7.982450  41.417900  -0.003274   0.010107  27.584300  -0.002144   0.006972  28.212600   3.670240   6.802820  35.477400  -0.002312   0.000172  23.628000  -0.001527  -0.000085  38.597800  -0.682253  -0.853186  57.904300  -0.003268   0.002805  38.564300  -0.002166   0.002054   2.567000  26.000000   5.295700   0.720322   0.105492   7.380160   0.236197  -3.828260   1.784370  -0.000000   0.000000  -0.000000   6.381120  24.360800  -0.350065  -1.193040   4.086680 -10.753100  -0.889538  -5.853990   0.481509  -0.000000   0.000000   0.000000
